<svg xmlns="http://www.w3.org/2000/svg" viewBox="0 0 1360 760">
  <defs>
    <filter id="shadow" x="-20%" y="-20%" width="140%" height="140%">
      <feDropShadow dx="0" dy="12" stdDeviation="16" flood-color="#201535" flood-opacity="0.10"/>
    </filter>
  </defs>

  <rect width="1360" height="760" fill="#F7F4FB"/>
  <text x="76" y="98" fill="#1D1730" font-family="Arial, sans-serif" font-size="48" font-weight="700">TAALI Logo Pack</text>
  <text x="76" y="136" fill="#6E6580" font-family="Arial, sans-serif" font-size="22">Square mark variants with slight corner radius and unchanged tally mark.</text>

  <g transform="translate(76 188)">
    <rect width="296" height="484" rx="28" fill="#FFFFFF" filter="url(#shadow)"/>
    <text x="32" y="62" fill="#1D1730" font-family="Arial, sans-serif" font-size="27" font-weight="700">Primary square</text>
    <text x="32" y="94" fill="#6E6580" font-family="Arial, sans-serif" font-size="19">Use for product + recruiter headers</text>
    <rect x="94" y="146" width="108" height="108" rx="20.4" fill="#7F39FB"/>
    <g transform="translate(96 148) scale(4.5)" stroke="#FFFFFF" stroke-width="0.6" stroke-linecap="round">
      <line x1="6" y1="4.5" x2="6" y2="19.5"/>
      <line x1="10" y1="4.5" x2="10" y2="19.5"/>
      <line x1="14" y1="4.5" x2="14" y2="19.5"/>
      <line x1="18" y1="4.5" x2="18" y2="19.5"/>
      <line x1="4" y1="18.5" x2="20" y2="5.5"/>
    </g>
    <text x="148" y="326" text-anchor="middle" fill="#1D1730" font-family="Arial, sans-serif" font-size="38" font-weight="700">TAALI</text>
    <text x="32" y="406" fill="#6E6580" font-family="Arial, sans-serif" font-size="18">Variant key: primary-square-rounded</text>
  </g>

  <g transform="translate(404 188)">
    <rect width="296" height="484" rx="28" fill="#FFFFFF" filter="url(#shadow)"/>
    <text x="32" y="62" fill="#1D1730" font-family="Arial, sans-serif" font-size="27" font-weight="700">Compact square</text>
    <text x="32" y="94" fill="#6E6580" font-family="Arial, sans-serif" font-size="19">Use in tight nav and control rows</text>
    <rect x="112" y="164" width="72" height="72" rx="13.2" fill="#7F39FB"/>
    <g transform="translate(113 165) scale(3)" stroke="#FFFFFF" stroke-width="0.92" stroke-linecap="round">
      <line x1="6" y1="4.5" x2="6" y2="19.5"/>
      <line x1="10" y1="4.5" x2="10" y2="19.5"/>
      <line x1="14" y1="4.5" x2="14" y2="19.5"/>
      <line x1="18" y1="4.5" x2="18" y2="19.5"/>
      <line x1="4" y1="18.5" x2="20" y2="5.5"/>
    </g>
    <text x="148" y="326" text-anchor="middle" fill="#1D1730" font-family="Arial, sans-serif" font-size="38" font-weight="700">TAALI</text>
    <text x="32" y="406" fill="#6E6580" font-family="Arial, sans-serif" font-size="18">Variant key: compact-square</text>
  </g>

  <g transform="translate(732 188)">
    <rect width="296" height="484" rx="28" fill="#FFFFFF" filter="url(#shadow)"/>
    <text x="32" y="62" fill="#1D1730" font-family="Arial, sans-serif" font-size="27" font-weight="700">Inverse square</text>
    <text x="32" y="94" fill="#6E6580" font-family="Arial, sans-serif" font-size="19">Use on high-contrast surfaces</text>
    <rect x="94" y="146" width="108" height="108" rx="20.4" fill="#151826"/>
    <g transform="translate(96 148) scale(4.5)" stroke="#FFFFFF" stroke-width="0.6" stroke-linecap="round">
      <line x1="6" y1="4.5" x2="6" y2="19.5"/>
      <line x1="10" y1="4.5" x2="10" y2="19.5"/>
      <line x1="14" y1="4.5" x2="14" y2="19.5"/>
      <line x1="18" y1="4.5" x2="18" y2="19.5"/>
      <line x1="4" y1="18.5" x2="20" y2="5.5"/>
    </g>
    <text x="148" y="326" text-anchor="middle" fill="#1D1730" font-family="Arial, sans-serif" font-size="38" font-weight="700">TAALI</text>
    <text x="32" y="406" fill="#6E6580" font-family="Arial, sans-serif" font-size="18">Variant key: inverse-square</text>
  </g>

  <g transform="translate(1060 188)">
    <rect width="224" height="484" rx="28" fill="#FFFFFF" filter="url(#shadow)"/>
    <text x="30" y="62" fill="#1D1730" font-family="Arial, sans-serif" font-size="27" font-weight="700">Mono lines</text>
    <text x="30" y="94" fill="#6E6580" font-family="Arial, sans-serif" font-size="19">Use in low-visual contexts</text>
    <g transform="translate(66 162)" stroke="#151826" stroke-width="12" stroke-linecap="round">
      <line x1="18" y1="8" x2="18" y2="86"/>
      <line x1="38" y1="8" x2="38" y2="86"/>
      <line x1="58" y1="8" x2="58" y2="86"/>
      <line x1="78" y1="8" x2="78" y2="86"/>
      <line x1="6" y1="72" x2="90" y2="10"/>
    </g>
    <text x="112" y="326" text-anchor="middle" fill="#1D1730" font-family="Arial, sans-serif" font-size="34" font-weight="700">TAALI</text>
    <text x="30" y="406" fill="#6E6580" font-family="Arial, sans-serif" font-size="18">Variant key: mono-lines</text>
  </g>
</svg>
